<?xml version="1.0"?>
<svg xmlns="http://www.w3.org/2000/svg" id="Line" height="512px" viewBox="0 0 64 64" width="512px" class=""><g transform="matrix(1 -2.44929e-16 2.44929e-16 1 -1.42109e-14 0)"><path d="m60.06 45.52-2.44-1.45v-6.14l2.44-1.45a2.94 2.94 0 0 0 1-4l-2.87-5a3 3 0 0 0 -4-1.09l-2.48 1.39-5.32-3.07v-2.84a3 3 0 0 0 -2.9-2.87h-5.74a2.94 2.94 0 0 0 -2.93 2.9v2.84l-5.32 3.07-2.5-1.39a3 3 0 0 0 -4 1.09l-2.87 5a2.94 2.94 0 0 0 1.05 4l2.44 1.45v6.14l-2.44 1.45a2.94 2.94 0 0 0 -1.05 4l2.87 5a3 3 0 0 0 4 1.09l2.48-1.39 5.32 3.07v2.84a2.94 2.94 0 0 0 2.95 2.84h5.74a3 3 0 0 0 2.94-2.9v-2.84l5.32-3.07 2.48 1.39a3 3 0 0 0 4-1.09l2.87-5a2.94 2.94 0 0 0 -1.04-3.97zm-5 4.31a2 2 0 0 1 -3.46-1.35l-2.9-1.67a10 10 0 0 1 -7.1 4.11v3.33a2 2 0 1 1 -2 0v-3.33a10 10 0 0 1 -7.11-4.11l-2.89 1.67a2 2 0 1 1 -3-1.74 2 2 0 0 1 2 0l2.89-1.67a9.91 9.91 0 0 1 0-8.21l-2.89-1.66a2 2 0 0 1 -2 0 2 2 0 0 1 -.37-3.2 2.07 2.07 0 0 1 2.36-.27 2 2 0 0 1 1 1.73l2.89 1.67a10 10 0 0 1 7.12-4.13v-3.3a2 2 0 1 1 2 0v3.3a10 10 0 0 1 7.1 4.11l2.9-1.67a2 2 0 0 1 1-1.73 2.07 2.07 0 0 1 2.4.29 2 2 0 0 1 -.36 3.2 2 2 0 0 1 -2 0l-.13.08a4.16 4.16 0 0 0 -2 4.26 9.73 9.73 0 0 1 .09 1.46 10.07 10.07 0 0 1 -.89 4.11l2.88 1.67a2 2 0 0 1 2 0 2 2 0 0 1 .47 3.05zm-14.46-16.83a8 8 0 1 0 8 8 8 8 0 0 0 -8-8zm0 11a3 3 0 1 1 3-3 3 3 0 0 1 -2.98 3z" fill="#c4a2fc" data-original="#C4A2FC" class="active-path" style="fill:#6FBC8F" data-old_color="#c4a2fc"/><path d="m39.5 13h-11v-4.14a4 4 0 1 0 -2 0v4.14h-11a13 13 0 0 0 -13 13v16a3 3 0 0 0 3 3h44a3 3 0 0 0 3-3v-16a13 13 0 0 0 -13-13zm-14-8a2 2 0 1 1 2 2 2 2 0 0 1 -2-2zm25 37a1 1 0 0 1 -1 1h-44a1 1 0 0 1 -1-1v-16a11 11 0 0 1 11-11h24a11 11 0 0 1 11 11zm-11-17a4 4 0 0 0 -3.86 3h-16.28a4 4 0 1 0 0 2h16.28a4 4 0 1 0 3.86-5zm-24 6a2 2 0 1 1 2-2 2 2 0 0 1 -2 2zm24 0a2 2 0 1 1 2-2 2 2 0 0 1 -2 2z" fill="#151a6a" data-original="#151A6A" class="" style="fill:#FFFFFF" data-old_color="#151a6a"/></g> </svg>
